{
    "asset" : {
        "generator" : "Khronos glTF Blender I/O v1.6.16",
        "version" : "2.0"
    },
    "scene" : 0,
    "scenes" : [
        {
            "name" : "Scene",
            "nodes" : [
                0,
                1,
                2,
                3,
                4,
                5,
                6,
                7,
                8
            ]
        }
    ],
    "nodes" : [
        {
            "mesh" : 0,
            "name" : "name",
            "rotation" : [
                0.7137065529823303,
                0.06244124472141266,
                -0.06080474331974983,
                0.6950013041496277
            ],
            "translation" : [
                -2.2301886081695557,
                -0.18475300073623657,
                -0.04248541593551636
            ]
        },
        {
            "mesh" : 1,
            "name" : "surname",
            "rotation" : [
                0.7137065529823303,
                0.06244123354554176,
                -0.06080473214387894,
                0.6950013041496277
            ],
            "translation" : [
                -4.063364505767822,
                0.8005726337432861,
                0.19676578044891357
            ]
        },
        {
            "mesh" : 2,
            "name" : "wdep",
            "rotation" : [
                0.7103036642074585,
                -0.09351325035095215,
                0.09106238931417465,
                0.6916875243186951
            ],
            "translation" : [
                1.8021235466003418,
                1.1768414974212646,
                -0.2938234210014343
            ]
        },
        {
            "mesh" : 3,
            "name" : "mscube",
            "rotation" : [
                0.7164328098297119,
                0,
                0,
                0.6976560950279236
            ],
            "scale" : [
                0.07000000029802322,
                1,
                1.0799999237060547
            ],
            "translation" : [
                1.0640816688537598,
                0.6959559321403503,
                -0.7089182734489441
            ]
        },
        {
            "mesh" : 4,
            "name" : "fullcube",
            "rotation" : [
                0.7164328098297119,
                0,
                0,
                0.6976560950279236
            ],
            "scale" : [
                0.07000000029802322,
                1,
                1.9199998378753662
            ],
            "translation" : [
                1.3353571891784668,
                0.042191118001937866,
                -1.6142454147338867
            ]
        },
        {
            "mesh" : 5,
            "name" : "wd",
            "rotation" : [
                0.7103036642074585,
                -0.09351325035095215,
                0.09106238931417465,
                0.6916875243186951
            ],
            "translation" : [
                1.8924845457077026,
                1.0642900466918945,
                -0.16378986835479736
            ]
        },
        {
            "mesh" : 6,
            "name" : "elo",
            "rotation" : [
                0.7103036642074585,
                -0.09351325035095215,
                0.09106238931417465,
                0.6916875243186951
            ],
            "translation" : [
                1.927945852279663,
                1.0720964670181274,
                -0.3465847373008728
            ]
        },
        {
            "mesh" : 7,
            "name" : "wdcube",
            "rotation" : [
                0.7164328098297119,
                0,
                0,
                0.6976560950279236
            ],
            "scale" : [
                0.07000000029802322,
                1,
                0.8399998545646667
            ],
            "translation" : [
                1.549310326576233,
                0.9154741764068604,
                -1.3051344156265259
            ]
        },
        {
            "mesh" : 8,
            "name" : "elocube",
            "rotation" : [
                0.7164328098297119,
                0,
                0,
                0.6976560950279236
            ],
            "scale" : [
                0.07000000029802322,
                1,
                0.33999982476234436
            ],
            "translation" : [
                1.6584975719451904,
                -0.45465022325515747,
                -0.8742648363113403
            ]
        }
    ],
    "meshes" : [
        {
            "name" : "nameText",
            "primitives" : [
                {
                    "attributes" : {
                        "POSITION" : 0,
                        "NORMAL" : 1,
                        "TEXCOORD_0" : 2
                    },
                    "indices" : 3
                }
            ]
        },
        {
            "name" : "surnameText",
            "primitives" : [
                {
                    "attributes" : {
                        "POSITION" : 4,
                        "NORMAL" : 5,
                        "TEXCOORD_0" : 6
                    },
                    "indices" : 7
                }
            ]
        },
        {
            "name" : "wdepText",
            "primitives" : [
                {
                    "attributes" : {
                        "POSITION" : 8,
                        "NORMAL" : 9,
                        "TEXCOORD_0" : 10
                    },
                    "indices" : 11
                }
            ]
        },
        {
            "name" : "mscube",
            "primitives" : [
                {
                    "attributes" : {
                        "POSITION" : 12,
                        "NORMAL" : 13,
                        "TEXCOORD_0" : 14
                    },
                    "indices" : 15
                }
            ]
        },
        {
            "name" : "fullcube",
            "primitives" : [
                {
                    "attributes" : {
                        "POSITION" : 16,
                        "NORMAL" : 17,
                        "TEXCOORD_0" : 18
                    },
                    "indices" : 15
                }
            ]
        },
        {
            "name" : "wdText",
            "primitives" : [
                {
                    "attributes" : {
                        "POSITION" : 19,
                        "NORMAL" : 20,
                        "TEXCOORD_0" : 21
                    },
                    "indices" : 22
                }
            ]
        },
        {
            "name" : "Text.004",
            "primitives" : [
                {
                    "attributes" : {
                        "POSITION" : 23,
                        "NORMAL" : 24,
                        "TEXCOORD_0" : 25
                    },
                    "indices" : 26
                }
            ]
        },
        {
            "name" : "wdcube",
            "primitives" : [
                {
                    "attributes" : {
                        "POSITION" : 27,
                        "NORMAL" : 28,
                        "TEXCOORD_0" : 29
                    },
                    "indices" : 15
                }
            ]
        },
        {
            "name" : "elocube",
            "primitives" : [
                {
                    "attributes" : {
                        "POSITION" : 30,
                        "NORMAL" : 31,
                        "TEXCOORD_0" : 32
                    },
                    "indices" : 15
                }
            ]
        }
    ],
    "accessors" : [
        {
            "bufferView" : 0,
            "componentType" : 5126,
            "count" : 1156,
            "max" : [
                3.080000162124634,
                0.35999998450279236,
                0.23000000417232513
            ],
            "min" : [
                0.07300000637769699,
                -0.35999998450279236,
                -0.6910000443458557
            ],
            "type" : "VEC3"
        },
        {
            "bufferView" : 1,
            "componentType" : 5126,
            "count" : 1156,
            "type" : "VEC3"
        },
        {
            "bufferView" : 2,
            "componentType" : 5126,
            "count" : 1156,
            "type" : "VEC2"
        },
        {
            "bufferView" : 3,
            "componentType" : 5123,
            "count" : 2112,
            "type" : "SCALAR"
        },
        {
            "bufferView" : 4,
            "componentType" : 5126,
            "count" : 3484,
            "max" : [
                4.924500465393066,
                0.3700000047683716,
                0.012060001492500305
            ],
            "min" : [
                0.0536000058054924,
                -0.3700000047683716,
                -0.9259400963783264
            ],
            "type" : "VEC3"
        },
        {
            "bufferView" : 5,
            "componentType" : 5126,
            "count" : 3484,
            "type" : "VEC3"
        },
        {
            "bufferView" : 6,
            "componentType" : 5126,
            "count" : 3484,
            "type" : "VEC2"
        },
        {
            "bufferView" : 7,
            "componentType" : 5123,
            "count" : 6228,
            "type" : "SCALAR"
        },
        {
            "bufferView" : 8,
            "componentType" : 5126,
            "count" : 3570,
            "max" : [
                2.0850000381469727,
                0.26999998092651367,
                3
            ],
            "min" : [
                0,
                -0.26999998092651367,
                -0.6820000410079956
            ],
            "type" : "VEC3"
        },
        {
            "bufferView" : 9,
            "componentType" : 5126,
            "count" : 3570,
            "type" : "VEC3"
        },
        {
            "bufferView" : 10,
            "componentType" : 5126,
            "count" : 3570,
            "type" : "VEC2"
        },
        {
            "bufferView" : 11,
            "componentType" : 5123,
            "count" : 6432,
            "type" : "SCALAR"
        },
        {
            "bufferView" : 12,
            "componentType" : 5126,
            "count" : 24,
            "max" : [
                1,
                1,
                1
            ],
            "min" : [
                -1,
                -1,
                -1
            ],
            "type" : "VEC3"
        },
        {
            "bufferView" : 13,
            "componentType" : 5126,
            "count" : 24,
            "type" : "VEC3"
        },
        {
            "bufferView" : 14,
            "componentType" : 5126,
            "count" : 24,
            "type" : "VEC2"
        },
        {
            "bufferView" : 15,
            "componentType" : 5123,
            "count" : 36,
            "type" : "SCALAR"
        },
        {
            "bufferView" : 16,
            "componentType" : 5126,
            "count" : 24,
            "max" : [
                1,
                1,
                1
            ],
            "min" : [
                -1,
                -1,
                -1
            ],
            "type" : "VEC3"
        },
        {
            "bufferView" : 17,
            "componentType" : 5126,
            "count" : 24,
            "type" : "VEC3"
        },
        {
            "bufferView" : 18,
            "componentType" : 5126,
            "count" : 24,
            "type" : "VEC2"
        },
        {
            "bufferView" : 19,
            "componentType" : 5126,
            "count" : 1516,
            "max" : [
                2.0850000381469727,
                0.26999998092651367,
                1.00600004196167
            ],
            "min" : [
                0,
                -0.26999998092651367,
                -0.6820000410079956
            ],
            "type" : "VEC3"
        },
        {
            "bufferView" : 20,
            "componentType" : 5126,
            "count" : 1516,
            "type" : "VEC3"
        },
        {
            "bufferView" : 21,
            "componentType" : 5126,
            "count" : 1516,
            "type" : "VEC2"
        },
        {
            "bufferView" : 22,
            "componentType" : 5123,
            "count" : 2700,
            "type" : "SCALAR"
        },
        {
            "bufferView" : 23,
            "componentType" : 5126,
            "count" : 812,
            "max" : [
                1.7680001258850098,
                0.26999998092651367,
                2.009000062942505
            ],
            "min" : [
                0.07500000298023224,
                -0.26999998092651367,
                1.309000015258789
            ],
            "type" : "VEC3"
        },
        {
            "bufferView" : 24,
            "componentType" : 5126,
            "count" : 812,
            "type" : "VEC3"
        },
        {
            "bufferView" : 25,
            "componentType" : 5126,
            "count" : 812,
            "type" : "VEC2"
        },
        {
            "bufferView" : 26,
            "componentType" : 5123,
            "count" : 1536,
            "type" : "SCALAR"
        },
        {
            "bufferView" : 27,
            "componentType" : 5126,
            "count" : 24,
            "max" : [
                1,
                1,
                1
            ],
            "min" : [
                -1,
                -1,
                -1
            ],
            "type" : "VEC3"
        },
        {
            "bufferView" : 28,
            "componentType" : 5126,
            "count" : 24,
            "type" : "VEC3"
        },
        {
            "bufferView" : 29,
            "componentType" : 5126,
            "count" : 24,
            "type" : "VEC2"
        },
        {
            "bufferView" : 30,
            "componentType" : 5126,
            "count" : 24,
            "max" : [
                1,
                1,
                1
            ],
            "min" : [
                -1,
                -1,
                -1
            ],
            "type" : "VEC3"
        },
        {
            "bufferView" : 31,
            "componentType" : 5126,
            "count" : 24,
            "type" : "VEC3"
        },
        {
            "bufferView" : 32,
            "componentType" : 5126,
            "count" : 24,
            "type" : "VEC2"
        }
    ],
    "bufferViews" : [
        {
            "buffer" : 0,
            "byteLength" : 13872,
            "byteOffset" : 0
        },
        {
            "buffer" : 0,
            "byteLength" : 13872,
            "byteOffset" : 13872
        },
        {
            "buffer" : 0,
            "byteLength" : 9248,
            "byteOffset" : 27744
        },
        {
            "buffer" : 0,
            "byteLength" : 4224,
            "byteOffset" : 36992
        },
        {
            "buffer" : 0,
            "byteLength" : 41808,
            "byteOffset" : 41216
        },
        {
            "buffer" : 0,
            "byteLength" : 41808,
            "byteOffset" : 83024
        },
        {
            "buffer" : 0,
            "byteLength" : 27872,
            "byteOffset" : 124832
        },
        {
            "buffer" : 0,
            "byteLength" : 12456,
            "byteOffset" : 152704
        },
        {
            "buffer" : 0,
            "byteLength" : 42840,
            "byteOffset" : 165160
        },
        {
            "buffer" : 0,
            "byteLength" : 42840,
            "byteOffset" : 208000
        },
        {
            "buffer" : 0,
            "byteLength" : 28560,
            "byteOffset" : 250840
        },
        {
            "buffer" : 0,
            "byteLength" : 12864,
            "byteOffset" : 279400
        },
        {
            "buffer" : 0,
            "byteLength" : 288,
            "byteOffset" : 292264
        },
        {
            "buffer" : 0,
            "byteLength" : 288,
            "byteOffset" : 292552
        },
        {
            "buffer" : 0,
            "byteLength" : 192,
            "byteOffset" : 292840
        },
        {
            "buffer" : 0,
            "byteLength" : 72,
            "byteOffset" : 293032
        },
        {
            "buffer" : 0,
            "byteLength" : 288,
            "byteOffset" : 293104
        },
        {
            "buffer" : 0,
            "byteLength" : 288,
            "byteOffset" : 293392
        },
        {
            "buffer" : 0,
            "byteLength" : 192,
            "byteOffset" : 293680
        },
        {
            "buffer" : 0,
            "byteLength" : 18192,
            "byteOffset" : 293872
        },
        {
            "buffer" : 0,
            "byteLength" : 18192,
            "byteOffset" : 312064
        },
        {
            "buffer" : 0,
            "byteLength" : 12128,
            "byteOffset" : 330256
        },
        {
            "buffer" : 0,
            "byteLength" : 5400,
            "byteOffset" : 342384
        },
        {
            "buffer" : 0,
            "byteLength" : 9744,
            "byteOffset" : 347784
        },
        {
            "buffer" : 0,
            "byteLength" : 9744,
            "byteOffset" : 357528
        },
        {
            "buffer" : 0,
            "byteLength" : 6496,
            "byteOffset" : 367272
        },
        {
            "buffer" : 0,
            "byteLength" : 3072,
            "byteOffset" : 373768
        },
        {
            "buffer" : 0,
            "byteLength" : 288,
            "byteOffset" : 376840
        },
        {
            "buffer" : 0,
            "byteLength" : 288,
            "byteOffset" : 377128
        },
        {
            "buffer" : 0,
            "byteLength" : 192,
            "byteOffset" : 377416
        },
        {
            "buffer" : 0,
            "byteLength" : 288,
            "byteOffset" : 377608
        },
        {
            "buffer" : 0,
            "byteLength" : 288,
            "byteOffset" : 377896
        },
        {
            "buffer" : 0,
            "byteLength" : 192,
            "byteOffset" : 378184
        }
    ],
    "buffers" : [
        {
            "byteLength" : 378376,
            "uri" : "data:application/octet-stream;base64,"
        }
    ]
}
