{
    "asset" : {
        "generator" : "Khronos glTF Blender I/O v1.6.16",
        "version" : "2.0"
    },
    "scene" : 0,
    "scenes" : [
        {
            "name" : "Scene",
            "nodes" : [
                0
            ]
        }
    ],
    "nodes" : [
        {
            "mesh" : 0,
            "name" : "elo",
            "rotation" : [
                0.7103036642074585,
                -0.09351325035095215,
                0.09106238931417465,
                0.6916875243186951
            ],
            "translation" : [
                1.927945852279663,
                1.0720964670181274,
                -0.3465847373008728
            ]
        }
    ],
    "meshes" : [
        {
            "name" : "elo",
            "primitives" : [
                {
                    "attributes" : {
                        "POSITION" : 0,
                        "NORMAL" : 1,
                        "TEXCOORD_0" : 2
                    },
                    "indices" : 3
                }
            ]
        }
    ],
    "accessors" : [
        {
            "bufferView" : 0,
            "componentType" : 5126,
            "count" : 812,
            "max" : [
                1.7680001258850098,
                0.26999998092651367,
                2.009000062942505
            ],
            "min" : [
                0.07500000298023224,
                -0.26999998092651367,
                1.309000015258789
            ],
            "type" : "VEC3"
        },
        {
            "bufferView" : 1,
            "componentType" : 5126,
            "count" : 812,
            "type" : "VEC3"
        },
        {
            "bufferView" : 2,
            "componentType" : 5126,
            "count" : 812,
            "type" : "VEC2"
        },
        {
            "bufferView" : 3,
            "componentType" : 5123,
            "count" : 1536,
            "type" : "SCALAR"
        }
    ],
    "bufferViews" : [
        {
            "buffer" : 0,
            "byteLength" : 9744,
            "byteOffset" : 0
        },
        {
            "buffer" : 0,
            "byteLength" : 9744,
            "byteOffset" : 9744
        },
        {
            "buffer" : 0,
            "byteLength" : 6496,
            "byteOffset" : 19488
        },
        {
            "buffer" : 0,
            "byteLength" : 3072,
            "byteOffset" : 25984
        }
    ],
    "buffers" : [
        {
            "byteLength" : 29056,
            "uri" : "data:application/octet-stream;base64,"
        }
    ]
}
