{
    "asset" : {
        "generator" : "Khronos glTF Blender I/O v1.6.16",
        "version" : "2.0"
    },
    "scene" : 0,
    "scenes" : [
        {
            "name" : "Scene",
            "nodes" : [
                0,
                1
            ]
        }
    ],
    "nodes" : [
        {
            "mesh" : 0,
            "name" : "name",
            "rotation" : [
                0.7137065529823303,
                0.06244124472141266,
                -0.06080474331974983,
                0.6950013041496277
            ],
            "translation" : [
                -2.268472671508789,
                -0.18475300073623657,
                -0.04248541593551636
            ]
        },
        {
            "mesh" : 1,
            "name" : "surname",
            "rotation" : [
                0.7137065529823303,
                0.06244123354554176,
                -0.06080473214387894,
                0.6950013041496277
            ],
            "translation" : [
                -4.063364505767822,
                0.8005726337432861,
                0.19676578044891357
            ]
        }
    ],
    "meshes" : [
        {
            "name" : "nameText",
            "primitives" : [
                {
                    "attributes" : {
                        "POSITION" : 0,
                        "NORMAL" : 1,
                        "TEXCOORD_0" : 2
                    },
                    "indices" : 3
                }
            ]
        },
        {
            "name" : "surnameText",
            "primitives" : [
                {
                    "attributes" : {
                        "POSITION" : 4,
                        "NORMAL" : 5,
                        "TEXCOORD_0" : 6
                    },
                    "indices" : 7
                }
            ]
        }
    ],
    "accessors" : [
        {
            "bufferView" : 0,
            "componentType" : 5126,
            "count" : 1156,
            "max" : [
                3.080000162124634,
                0.35999998450279236,
                0.23000000417232513
            ],
            "min" : [
                0.07300000637769699,
                -0.35999998450279236,
                -0.6910000443458557
            ],
            "type" : "VEC3"
        },
        {
            "bufferView" : 1,
            "componentType" : 5126,
            "count" : 1156,
            "type" : "VEC3"
        },
        {
            "bufferView" : 2,
            "componentType" : 5126,
            "count" : 1156,
            "type" : "VEC2"
        },
        {
            "bufferView" : 3,
            "componentType" : 5123,
            "count" : 2112,
            "type" : "SCALAR"
        },
        {
            "bufferView" : 4,
            "componentType" : 5126,
            "count" : 3484,
            "max" : [
                4.924500465393066,
                0.3700000047683716,
                0.012060001492500305
            ],
            "min" : [
                0.0536000058054924,
                -0.3700000047683716,
                -0.9259400963783264
            ],
            "type" : "VEC3"
        },
        {
            "bufferView" : 5,
            "componentType" : 5126,
            "count" : 3484,
            "type" : "VEC3"
        },
        {
            "bufferView" : 6,
            "componentType" : 5126,
            "count" : 3484,
            "type" : "VEC2"
        },
        {
            "bufferView" : 7,
            "componentType" : 5123,
            "count" : 6228,
            "type" : "SCALAR"
        }
    ],
    "bufferViews" : [
        {
            "buffer" : 0,
            "byteLength" : 13872,
            "byteOffset" : 0
        },
        {
            "buffer" : 0,
            "byteLength" : 13872,
            "byteOffset" : 13872
        },
        {
            "buffer" : 0,
            "byteLength" : 9248,
            "byteOffset" : 27744
        },
        {
            "buffer" : 0,
            "byteLength" : 4224,
            "byteOffset" : 36992
        },
        {
            "buffer" : 0,
            "byteLength" : 41808,
            "byteOffset" : 41216
        },
        {
            "buffer" : 0,
            "byteLength" : 41808,
            "byteOffset" : 83024
        },
        {
            "buffer" : 0,
            "byteLength" : 27872,
            "byteOffset" : 124832
        },
        {
            "buffer" : 0,
            "byteLength" : 12456,
            "byteOffset" : 152704
        }
    ],
    "buffers" : [
        {
            "byteLength" : 165160,
            "uri" : "data:application/octet-stream;base64,"
        }
    ]
}
