{
    "asset" : {
        "generator" : "Khronos glTF Blender I/O v1.6.16",
        "version" : "2.0"
    },
    "scene" : 0,
    "scenes" : [
        {
            "name" : "Scene",
            "nodes" : [
                0
            ]
        }
    ],
    "nodes" : [
        {
            "mesh" : 0,
            "name" : "wd",
            "rotation" : [
                0.7103036642074585,
                -0.09351325035095215,
                0.09106238931417465,
                0.6916875243186951
            ],
            "translation" : [
                1.8924845457077026,
                1.0642900466918945,
                -0.16378986835479736
            ]
        }
    ],
    "meshes" : [
        {
            "name" : "wdText",
            "primitives" : [
                {
                    "attributes" : {
                        "POSITION" : 0,
                        "NORMAL" : 1,
                        "TEXCOORD_0" : 2
                    },
                    "indices" : 3
                }
            ]
        }
    ],
    "accessors" : [
        {
            "bufferView" : 0,
            "componentType" : 5126,
            "count" : 1516,
            "max" : [
                2.0850000381469727,
                0.26999998092651367,
                1.00600004196167
            ],
            "min" : [
                0,
                -0.26999998092651367,
                -0.6820000410079956
            ],
            "type" : "VEC3"
        },
        {
            "bufferView" : 1,
            "componentType" : 5126,
            "count" : 1516,
            "type" : "VEC3"
        },
        {
            "bufferView" : 2,
            "componentType" : 5126,
            "count" : 1516,
            "type" : "VEC2"
        },
        {
            "bufferView" : 3,
            "componentType" : 5123,
            "count" : 2700,
            "type" : "SCALAR"
        }
    ],
    "bufferViews" : [
        {
            "buffer" : 0,
            "byteLength" : 18192,
            "byteOffset" : 0
        },
        {
            "buffer" : 0,
            "byteLength" : 18192,
            "byteOffset" : 18192
        },
        {
            "buffer" : 0,
            "byteLength" : 12128,
            "byteOffset" : 36384
        },
        {
            "buffer" : 0,
            "byteLength" : 5400,
            "byteOffset" : 48512
        }
    ],
    "buffers" : [
        {
            "byteLength" : 53912,
            "uri" : "data:application/octet-stream;base64,"
        }
    ]
}
