{
    "asset" : {
        "generator" : "Khronos glTF Blender I/O v1.6.16",
        "version" : "2.0"
    },
    "scene" : 0,
    "scenes" : [
        {
            "name" : "Scene",
            "nodes" : [
                0
            ]
        }
    ],
    "nodes" : [
        {
            "mesh" : 0,
            "name" : "wdep",
            "rotation" : [
                0.7103036642074585,
                -0.09351325035095215,
                0.09106238931417465,
                0.6916875243186951
            ],
            "translation" : [
                1.8021235466003418,
                1.1768414974212646,
                -0.2938234210014343
            ]
        }
    ],
    "meshes" : [
        {
            "name" : "wdepText",
            "primitives" : [
                {
                    "attributes" : {
                        "POSITION" : 0,
                        "NORMAL" : 1,
                        "TEXCOORD_0" : 2
                    },
                    "indices" : 3
                }
            ]
        }
    ],
    "accessors" : [
        {
            "bufferView" : 0,
            "componentType" : 5126,
            "count" : 3570,
            "max" : [
                2.0850000381469727,
                0.26999998092651367,
                3
            ],
            "min" : [
                0,
                -0.26999998092651367,
                -0.6820000410079956
            ],
            "type" : "VEC3"
        },
        {
            "bufferView" : 1,
            "componentType" : 5126,
            "count" : 3570,
            "type" : "VEC3"
        },
        {
            "bufferView" : 2,
            "componentType" : 5126,
            "count" : 3570,
            "type" : "VEC2"
        },
        {
            "bufferView" : 3,
            "componentType" : 5123,
            "count" : 6432,
            "type" : "SCALAR"
        }
    ],
    "bufferViews" : [
        {
            "buffer" : 0,
            "byteLength" : 42840,
            "byteOffset" : 0
        },
        {
            "buffer" : 0,
            "byteLength" : 42840,
            "byteOffset" : 42840
        },
        {
            "buffer" : 0,
            "byteLength" : 28560,
            "byteOffset" : 85680
        },
        {
            "buffer" : 0,
            "byteLength" : 12864,
            "byteOffset" : 114240
        }
    ],
    "buffers" : [
        {
            "byteLength" : 127104,
            "uri" : "data:application/octet-stream;base64,"
        }
    ]
}
