{
    "asset" : {
        "generator" : "Khronos glTF Blender I/O v1.6.16",
        "version" : "2.0"
    },
    "scene" : 0,
    "scenes" : [
        {
            "name" : "Scene",
            "nodes" : [
                0,
                1,
                2,
                3,
                4,
                5
            ]
        }
    ],
    "nodes" : [
        {
            "mesh" : 0,
            "name" : "Text",
            "rotation" : [
                0.7073944211006165,
                0,
                0,
                0.7068189978599548
            ],
            "translation" : [
                -3.8238165378570557,
                0.07157468795776367,
                3.2154312133789062
            ]
        },
        {
            "mesh" : 1,
            "name" : "Text.001",
            "rotation" : [
                0.6889609694480896,
                -0.16663606464862823,
                0.16755203902721405,
                0.6851945519447327
            ],
            "scale" : [
                0.5397257208824158,
                0.5397257804870605,
                0.5397257208824158
            ],
            "translation" : [
                0.8087876439094543,
                0.48287245631217957,
                5.950913429260254
            ]
        },
        {
            "mesh" : 2,
            "name" : "Text.002",
            "rotation" : [
                0.6889609694480896,
                -0.16663606464862823,
                0.16755203902721405,
                0.6851945519447327
            ],
            "scale" : [
                0.5397257208824158,
                0.5397257804870605,
                0.5397257208824158
            ],
            "translation" : [
                0.25159752368927,
                0.11101630330085754,
                5.460627555847168
            ]
        },
        {
            "mesh" : 3,
            "name" : "Text.003",
            "rotation" : [
                0.7073944211006165,
                0,
                0,
                0.7068189978599548
            ],
            "translation" : [
                -3.5166609287261963,
                0.21598994731903076,
                2.630120277404785
            ]
        },
        {
            "name" : "Light",
            "rotation" : [
                0.16907577216625214,
                0.7558802962303162,
                -0.27217137813568115,
                0.570947527885437
            ],
            "translation" : [
                4.076245307922363,
                5.903861999511719,
                -1.0054540634155273
            ]
        },
        {
            "name" : "Camera",
            "rotation" : [
                0.483536034822464,
                0.33687159419059753,
                -0.20870360732078552,
                0.7804827094078064
            ],
            "translation" : [
                7.358891487121582,
                4.958309173583984,
                6.925790786743164
            ]
        }
    ],
    "meshes" : [
        {
            "name" : "Text.001",
            "primitives" : [
                {
                    "attributes" : {
                        "POSITION" : 0,
                        "NORMAL" : 1,
                        "TEXCOORD_0" : 2
                    },
                    "indices" : 3
                }
            ]
        },
        {
            "name" : "Text.002",
            "primitives" : [
                {
                    "attributes" : {
                        "POSITION" : 4,
                        "NORMAL" : 5,
                        "TEXCOORD_0" : 6
                    },
                    "indices" : 7
                }
            ]
        },
        {
            "name" : "Text.003",
            "primitives" : [
                {
                    "attributes" : {
                        "POSITION" : 8,
                        "NORMAL" : 9,
                        "TEXCOORD_0" : 10
                    },
                    "indices" : 11
                }
            ]
        },
        {
            "name" : "Text.004",
            "primitives" : [
                {
                    "attributes" : {
                        "POSITION" : 12,
                        "NORMAL" : 13,
                        "TEXCOORD_0" : 14
                    },
                    "indices" : 15
                }
            ]
        }
    ],
    "accessors" : [
        {
            "bufferView" : 0,
            "componentType" : 5126,
            "count" : 5840,
            "max" : [
                5.3005757331848145,
                0.26999998092651367,
                0.019018754363059998
            ],
            "min" : [
                0.06600000709295273,
                -0.26999998092651367,
                -0.7010182738304138
            ],
            "type" : "VEC3"
        },
        {
            "bufferView" : 1,
            "componentType" : 5126,
            "count" : 5840,
            "type" : "VEC3"
        },
        {
            "bufferView" : 2,
            "componentType" : 5126,
            "count" : 5840,
            "type" : "VEC2"
        },
        {
            "bufferView" : 3,
            "componentType" : 5123,
            "count" : 25068,
            "type" : "SCALAR"
        },
        {
            "bufferView" : 4,
            "componentType" : 5126,
            "count" : 4770,
            "max" : [
                2.503000020980835,
                0.12000000476837158,
                0.23000000417232513
            ],
            "min" : [
                0.07300000637769699,
                -0.12000000476837158,
                -0.6820000410079956
            ],
            "type" : "VEC3"
        },
        {
            "bufferView" : 5,
            "componentType" : 5126,
            "count" : 4770,
            "type" : "VEC3"
        },
        {
            "bufferView" : 6,
            "componentType" : 5126,
            "count" : 4770,
            "type" : "VEC2"
        },
        {
            "bufferView" : 7,
            "componentType" : 5123,
            "count" : 8976,
            "type" : "SCALAR"
        },
        {
            "bufferView" : 8,
            "componentType" : 5126,
            "count" : 3484,
            "max" : [
                3.6750001907348633,
                0.1899999976158142,
                0.009000000543892384
            ],
            "min" : [
                0.04000000283122063,
                -0.1899999976158142,
                -0.6910000443458557
            ],
            "type" : "VEC3"
        },
        {
            "bufferView" : 9,
            "componentType" : 5126,
            "count" : 3484,
            "type" : "VEC3"
        },
        {
            "bufferView" : 10,
            "componentType" : 5126,
            "count" : 3484,
            "type" : "VEC2"
        },
        {
            "bufferView" : 11,
            "componentType" : 5123,
            "count" : 6228,
            "type" : "SCALAR"
        },
        {
            "bufferView" : 12,
            "componentType" : 5126,
            "count" : 2224,
            "max" : [
                4.45106840133667,
                0.26999998092651367,
                0.022780001163482666
            ],
            "min" : [
                -0.014786282554268837,
                -0.26999998092651367,
                -1.4626601934432983
            ],
            "type" : "VEC3"
        },
        {
            "bufferView" : 13,
            "componentType" : 5126,
            "count" : 2224,
            "type" : "VEC3"
        },
        {
            "bufferView" : 14,
            "componentType" : 5126,
            "count" : 2224,
            "type" : "VEC2"
        },
        {
            "bufferView" : 15,
            "componentType" : 5123,
            "count" : 9420,
            "type" : "SCALAR"
        }
    ],
    "bufferViews" : [
        {
            "buffer" : 0,
            "byteLength" : 70080,
            "byteOffset" : 0
        },
        {
            "buffer" : 0,
            "byteLength" : 70080,
            "byteOffset" : 70080
        },
        {
            "buffer" : 0,
            "byteLength" : 46720,
            "byteOffset" : 140160
        },
        {
            "buffer" : 0,
            "byteLength" : 50136,
            "byteOffset" : 186880
        },
        {
            "buffer" : 0,
            "byteLength" : 57240,
            "byteOffset" : 237016
        },
        {
            "buffer" : 0,
            "byteLength" : 57240,
            "byteOffset" : 294256
        },
        {
            "buffer" : 0,
            "byteLength" : 38160,
            "byteOffset" : 351496
        },
        {
            "buffer" : 0,
            "byteLength" : 17952,
            "byteOffset" : 389656
        },
        {
            "buffer" : 0,
            "byteLength" : 41808,
            "byteOffset" : 407608
        },
        {
            "buffer" : 0,
            "byteLength" : 41808,
            "byteOffset" : 449416
        },
        {
            "buffer" : 0,
            "byteLength" : 27872,
            "byteOffset" : 491224
        },
        {
            "buffer" : 0,
            "byteLength" : 12456,
            "byteOffset" : 519096
        },
        {
            "buffer" : 0,
            "byteLength" : 26688,
            "byteOffset" : 531552
        },
        {
            "buffer" : 0,
            "byteLength" : 26688,
            "byteOffset" : 558240
        },
        {
            "buffer" : 0,
            "byteLength" : 17792,
            "byteOffset" : 584928
        },
        {
            "buffer" : 0,
            "byteLength" : 18840,
            "byteOffset" : 602720
        }
    ],
    "buffers" : [
        {
            "byteLength" : 621560,
            "uri" : "data:application/octet-stream;base64,"
        }
    ]
}
